<?xml version="1.0" encoding="UTF-8"?>
<svg width="12px" height="8px" viewBox="0 0 12 8" version="1.1" xmlns="http://www.w3.org/2000/svg" xmlns:xlink="http://www.w3.org/1999/xlink">
    <title>Shape</title>
    <g id="Page-1" stroke="none" stroke-width="1" fill="none" fill-rule="evenodd">
        <g id="Vector-(9)" fill="#FF0000" fill-rule="nonzero">
            <path d="M6,1.66665931 C5.77919,1.67012 5.56002,1.7052 5.34917,1.77083 C5.4467,1.94236 5.49863,2.13602 5.5,2.33333 C5.5,2.48654 5.46982,2.63825 5.41119,2.7798 C5.35256,2.92134 5.26662,3.04996 5.15829,3.15829 C5.04995,3.26663 4.92134,3.35256 4.77979,3.41119 C4.63825,3.46982 4.48654,3.5 4.33333,3.5 C4.13602,3.49863 3.94235,3.4467 3.77083,3.34917 C3.6355,3.8185 3.65127,4.31851 3.81591,4.77838 C3.98055,5.23825 4.28571,5.63467 4.68816,5.91147 C5.09061,6.18827 5.56995,6.33143 6.05828,6.32067 C6.54662,6.30992 7.01919,6.14578 7.40906,5.85152 C7.79893,5.55726 8.08633,5.1478 8.23056,4.68112 C8.37478,4.21445 8.36852,3.71422 8.21265,3.25131 C8.05678,2.78839 7.75922,2.38625 7.3621,2.10184 C6.96498,1.81744 6.48845,1.66519 6,1.66665931 Z M11.9275,3.69583 C10.7977,1.49146 8.56105,0 6,0 C3.43895,0 1.20166,1.4925 0.0724887,3.69604 C0.0248307,3.79031 0,3.89447 0,4.0001 C0,4.10574 0.0248307,4.20989 0.0724887,4.30417 C1.20228,6.50854 3.43895,8 6,8 C8.56105,8 10.7983,6.5075 11.9275,4.30396 C11.9752,4.20969 12,4.10553 12,3.9999 C12,3.89426 11.9752,3.79011 11.9275,3.69583 Z M6,7 C3.94479,7 2.06062,5.85417 1.04312,4 C2.06062,2.14583 3.94458,1 6,1 C8.05542,1 9.93938,2.14583 10.9569,4 C9.93959,5.85417 8.05542,7 6,7 Z" id="Shape"></path>
        </g>
    </g>
</svg>