<svg xmlns="http://www.w3.org/2000/svg" width="75" height="74.989" viewBox="0 0 75 74.989"><g transform="translate(119.934 -362.76)"><path d="M-82.434,362.76a37.5,37.5,0,0,0-37.5,37.5h0a37.5,37.5,0,0,0,37.5,37.489,37.493,37.493,0,0,0,37.5-37.486v0a37.5,37.5,0,0,0-37.5-37.5Z" fill="#fff"/><path d="M-60.378,400.757a19.338,19.338,0,0,0-.475-4.6H-81.986v8.353h12.4a11,11,0,0,1-4.6,7.3l-.042.279,6.682,5.176.463.047c4.251-3.927,6.7-9.7,6.7-16.557" fill="#5c83ef"/><path d="M-81.984,422.765a21.459,21.459,0,0,0,14.9-5.452l-7.1-5.5a13.329,13.329,0,0,1-7.8,2.25,13.549,13.549,0,0,1-12.8-9.353l-.263.023L-102,410.11l-.091.253a22.493,22.493,0,0,0,20.107,12.4" fill="#67a559"/><path d="M-94.79,404.707a13.849,13.849,0,0,1-.75-4.451,14.544,14.544,0,0,1,.726-4.452l-.013-.3-7.035-5.464-.23.11a22.521,22.521,0,0,0-2.4,10.1,22.538,22.538,0,0,0,2.4,10.1l7.3-5.652" fill="#eaba2d"/><path d="M-81.984,386.452a12.469,12.469,0,0,1,8.7,3.35l6.353-6.2a21.619,21.619,0,0,0-15.056-5.853,22.49,22.49,0,0,0-20.107,12.4l7.278,5.651a13.6,13.6,0,0,1,12.829-9.352" fill="#cb4539"/></g></svg>