<svg width="21" height="22" fill="none" xmlns="http://www.w3.org/2000/svg"><path d="M14.886 5.668a1.464 1.464 0 0 1 1.34 2c-.445 1.19-.901 2.373-1.351 3.557-1.112 2.918-2.223 5.83-3.33 8.748-.233.617-.644 1-1.31 1.05-.695.056-1.268-.372-1.479-1.067-.478-1.578-.95-3.162-1.423-4.74-.016-.062-.044-.117-.05-.178-.022-.178-.133-.245-.3-.295-1.628-.483-3.257-.973-4.885-1.462-.661-.2-1.078-.705-1.106-1.333-.028-.656.34-1.19.99-1.44a8088.53 8088.53 0 0 1 12.365-4.707c.172-.061.356-.089.539-.133zM9.695.988c.156.084.334.14.456.256.662.645 1.312 1.295 1.962 1.956.283.29.283.7.006.967-.273.261-.662.256-.95-.033-.651-.645-1.296-1.295-1.946-1.94-.222-.222-.278-.494-.161-.761.106-.24.35-.4.633-.445zM18.438 4.362c-.373-.028-.584-.145-.7-.406a.617.617 0 0 1 .127-.728c.317-.328.645-.65.967-.972.328-.328.656-.662.99-.984.305-.3.705-.311.983-.039.272.278.261.678-.044.984-.634.633-1.262 1.272-1.901 1.895-.14.122-.328.194-.422.25zM21 12.275c-.034.362-.156.578-.417.69-.278.122-.534.055-.745-.156-.528-.522-1.05-1.05-1.573-1.573-.133-.133-.267-.261-.394-.4-.261-.278-.261-.678-.006-.94a.66.66 0 0 1 .95 0c.662.651 1.323 1.307 1.968 1.974.116.128.172.317.216.405zM14.33 2.389c0-.217-.006-.428 0-.645.01-.389.305-.678.672-.672.361.005.65.294.656.667.005.427.005.86 0 1.289a.663.663 0 0 1-1.328.005c-.006-.216 0-.433 0-.644zM19.67 6.357c.206 0 .418-.006.623 0a.664.664 0 0 1-.011 1.328c-.428.006-.861.006-1.29 0a.664.664 0 0 1-.666-.661c-.006-.373.283-.662.672-.673.228.006.45.006.673.006z" fill="#fff"/></svg>
