<svg width="24" height="25" fill="none" xmlns="http://www.w3.org/2000/svg"><path d="M12.006 1.052c1.93 0 3.871-.013 5.8.013a8.797 8.797 0 0 1 1.93.231c2.348.54 3.87 2.29 4.15 4.733.063.54.089 1.094.089 1.634a793.51 793.51 0 0 1-.013 10.997c-.013.9-.152 1.839-.432 2.688-.736 2.199-2.386 3.37-4.607 3.498-2.766.154-5.546.142-8.325.154-1.84 0-3.681 0-5.521-.141-2.78-.206-4.658-2.122-4.975-4.965-.051-.488-.09-.99-.09-1.492C0 14.685-.012 10.968.026 7.264a8.571 8.571 0 0 1 .432-2.598c.736-2.2 2.386-3.331 4.607-3.511 1.93-.142 3.871-.103 5.8-.155.38-.013.762 0 1.142 0v.052zm-.012 4.116c-4.316.012-7.742 3.524-7.73 7.897.026 4.334 3.49 7.794 7.793 7.781 4.226-.013 7.679-3.511 7.679-7.794.012-4.386-3.44-7.897-7.742-7.884zM19.76 3.65a1.544 1.544 0 0 0-1.523 1.569c0 .887.71 1.57 1.586 1.556.85-.013 1.523-.733 1.51-1.582-.025-.874-.71-1.556-1.573-1.543z" fill="#00A726"/><path d="M11.994 7.945c2.767 0 4.988 2.251 5 5.055 0 2.804-2.22 5.055-4.988 5.068-2.766 0-4.987-2.251-5-5.055 0-2.804 2.234-5.055 4.988-5.068z" fill="#00A726"/></svg>
