<svg width="220" height="26" fill="none" xmlns="http://www.w3.org/2000/svg"><g clip-path="url(#a)"><path d="M193.222 21.863c12.12 0 21.906-9.735 21.906-21.7h-43.812c0 12.005 9.827 21.7 21.906 21.7zM218.075 2.677c.328 0 .656 0 .656-.365 0-.284-.246-.365-.492-.365h-.491v.73h.327zm-.368 1.136h-.246v-2.11h.819c.492 0 .696.203.696.568 0 .365-.245.528-.532.609l.655.973h-.327l-.615-.973h-.45v.933zm-1.147-1.055c0 .893.656 1.582 1.556 1.582.901 0 1.556-.69 1.556-1.582 0-.892-.655-1.582-1.556-1.582-.9 0-1.556.69-1.556 1.582zm3.44 0c0 1.055-.819 1.866-1.884 1.866-1.064 0-1.883-.811-1.883-1.866a1.87 1.87 0 0 1 1.883-1.866A1.87 1.87 0 0 1 220 2.758zM115.876 12.696l2.948-10.1c.491-1.663 1.146-2.515 2.62-2.515 1.351 0 2.498 1.014 2.498 2.353 0 .568-.246 1.135-.369 1.582l-5.118 15.94c-.409 1.258-1.228 1.907-2.293 1.907-1.187 0-2.006-.609-2.375-1.704l-4.094-11.235-3.89 11.276c-.368 1.054-1.269 1.703-2.375 1.703-1.31 0-1.924-.77-2.334-1.906l-5.24-15.82c-.123-.405-.37-1.013-.37-1.581 0-1.298 1.106-2.434 2.417-2.434 1.474 0 2.088.933 2.579 2.556l3.112 10.059 3.603-10.83c.369-1.055 1.311-1.744 2.498-1.744 1.146 0 2.047.649 2.334 1.541l3.849 10.952zM129.961 10.992c0 3.448 2.743 6.125 6.224 6.125 3.357 0 6.141-2.677 6.141-6.003 0-3.488-2.702-6.287-6.06-6.287-3.439.04-6.305 2.84-6.305 6.165zm17.32.162c0 5.922-4.996 10.83-11.137 10.83-6.183 0-11.097-4.908-11.097-11.154 0-5.922 4.996-10.83 11.178-10.83 6.06 0 11.056 5.03 11.056 11.154zM159.769 10.668l7.084 6.449c.778.69 1.392 1.298 1.392 2.352 0 1.38-1.147 2.394-2.498 2.394-.982 0-1.597-.528-2.252-1.177l-8.23-7.666v6.125c0 1.785-1.146 2.758-2.457 2.758-1.31 0-2.497-.973-2.497-2.758V2.84c0-1.744 1.146-2.798 2.497-2.798 1.311 0 2.457 1.014 2.457 2.798v5.638l7.207-7.18c.696-.689 1.31-1.256 2.293-1.256 1.351 0 2.456 1.054 2.456 2.393 0 .973-.573 1.582-1.31 2.271l-6.142 5.963z" fill="#000"/><path d="M214.022 13.06h-42.215a.485.485 0 0 0-.491.406v.162c.041.244.246.447.491.447l42.174 1.257c.614 0 1.147-.487 1.147-1.095 0-.649-.492-1.176-1.106-1.176z" fill="#2D9543"/><path d="M209.027 23.85 169.391 9.532c-.245-.081-.491 0-.614.203l-.041.04v.081a.497.497 0 0 0 .328.568l39.185 15.454c.573.203 1.228-.08 1.433-.649.204-.527-.082-1.135-.655-1.379z" fill="#2D9543"/><path d="M10.81 0C5.077 0 0 4.949 0 10.952c0 6.084 5.077 11.032 11.22 11.032 4.38 0 8.843-3.042 8.843-5.435 0-1.095-.9-2.312-2.538-2.312-.655 0-1.229.325-1.761.77-.86.73-2.17 2.11-4.586 2.11-3.603 0-6.305-2.758-6.305-6.165 0-3.245 2.743-6.085 6.06-6.085 2.088 0 3.316.812 4.667 2.028.533.447 1.024.771 1.76.771 1.475 0 2.458-1.176 2.458-2.271 0-1.217-.615-1.947-1.761-2.8C15.846.812 13.84 0 10.81 0zM28.252 8.559h8.026v-5.72c0-1.744 1.146-2.717 2.497-2.717s2.457.973 2.457 2.717v16.266c0 1.784-1.146 2.758-2.457 2.758-1.31 0-2.497-.974-2.497-2.758V13.02h-8.026v6.085c0 1.784-1.146 2.758-2.456 2.758s-2.498-.974-2.498-2.758V2.839c0-1.744 1.146-2.717 2.498-2.717 1.31 0 2.456.933 2.456 2.717v5.72zM45.9 2.84c0-1.745 1.146-2.718 2.498-2.718 1.31 0 2.456.933 2.456 2.717v16.266c0 1.784-1.146 2.758-2.456 2.758s-2.498-.974-2.498-2.758V2.839zM68.87 12.818V2.839c0-1.744 1.106-2.717 2.457-2.717 1.351 0 2.498.973 2.498 2.717v15.9c0 .447 0 1.055-.123 1.46-.287.974-1.351 1.664-2.416 1.664-1.187 0-1.76-.568-2.416-1.46L60.108 9.248v9.857c0 1.784-1.146 2.758-2.457 2.758-1.31 0-2.497-.974-2.497-2.758V2.677c0-1.46.982-2.515 2.456-2.515.942 0 1.556.528 2.211 1.42l9.05 11.236zM88.81 13.791l-2.62-6.165-2.538 6.165h5.159zm1.72 4.218h-8.639l-.696 1.542c-.614 1.42-1.31 2.23-2.334 2.23-1.924 0-2.743-1.297-2.743-2.19 0-.892.368-1.582.532-2.028l7.124-15.819c.45-.973 1.27-1.5 2.375-1.5 1.024 0 1.925.608 2.334 1.5l7.33 15.779c.245.527.532 1.135.532 2.028 0 .973-.86 2.271-2.744 2.271-1.064 0-1.76-.811-2.374-2.19l-.697-1.623z" fill="#EA151D"/></g><defs><clipPath id="a"><path fill="#fff" d="M0 0h220v26H0z"/></clipPath></defs></svg>