<?xml version="1.0" encoding="UTF-8"?>
<svg width="70px" height="130px" viewBox="0 0 70 130" version="1.1" xmlns="http://www.w3.org/2000/svg" xmlns:xlink="http://www.w3.org/1999/xlink">
    <!-- Generator: Sketch 48.2 (47327) - http://www.bohemiancoding.com/sketch -->
    <title>Shape</title>
    <desc>Created with Sketch.</desc>
    <defs></defs>
    <g id="Page-1" stroke="none" stroke-width="1" fill="none" fill-rule="evenodd">
        <g id="pin" fill="#000000" fill-rule="nonzero">
            <g id="Group">
                <path d="M19.7101935,84.1494055 C18.3739028,81.3531451 17.7024878,77.1379331 15.6624813,74.0088273 C8.94492888,63.7049721 0.544429111,53.6284358 0.56488266,44.0018943 C0.728926901,20.1692017 10.5317929,0.92815645 34.3650499,0.930355039 C58.198307,0.932553628 69.5152856,20.1691719 69.6749327,44.0018943 C69.6749327,52.6319559 60.5138876,64.0440112 54.2724173,74.0088273 C51.0797701,79.1060466 50.5339196,83.2207552 48.1633279,87.4890244 C41.0843006,100.234869 37.0705629,129.259351 34.8728623,129.265854 C32.6761983,129.262814 26.4308112,98.2126604 19.7101935,84.1494055 Z M14.6752689,28.580766 C11.2701366,36.8014824 13.1523357,46.2639364 19.4441997,52.5558003 C25.7360636,58.8476643 35.1985176,60.7298634 43.419234,57.3247311 C51.6399504,53.9195989 57,45.8977178 57,36.9996785 C56.9852908,24.8556895 47.1443105,15.0147092 35.0003215,15 C26.1022822,15 18.0804011,20.3600496 14.6752689,28.580766 Z" id="Shape"></path>
            </g>
        </g>
    </g>
</svg>