<?xml version="1.0" encoding="UTF-8"?>
<svg width="70px" height="129px" viewBox="0 0 70 129" version="1.1" xmlns="http://www.w3.org/2000/svg" xmlns:xlink="http://www.w3.org/1999/xlink">
    <!-- Generator: Sketch 48.2 (47327) - http://www.bohemiancoding.com/sketch -->
    <title>pin</title>
    <desc>Created with Sketch.</desc>
    <defs></defs>
    <g id="Page-1" stroke="none" stroke-width="1" fill="none" fill-rule="evenodd">
        <g id="pin" fill="#000000" fill-rule="nonzero">
            <g id="Group">
                <path d="M19.1453481,83.2190504 C17.8090574,80.4227901 17.1376424,76.207578 15.0976359,73.0784723 C8.3800835,62.7746171 -0.0204162713,52.6980808 3.72776458e-05,43.0715393 C0.164081519,19.2388467 9.9669475,-0.00219858924 33.8002045,0 C57.6334616,0.00219858924 68.9504402,19.2388168 69.1100874,43.0715393 C69.1100874,51.7016009 59.9490422,63.1136562 53.707572,73.0784723 C50.5149247,78.1756916 49.9690742,82.2904001 47.5984825,86.5586693 C40.5194552,99.3045141 36.5057175,128.328996 34.3080169,128.335499 C32.1113529,128.332459 25.8659658,97.2823054 19.1453481,83.2190504 Z M16.9083316,28.9731924 C13.9238226,36.1784346 15.5735207,44.4720271 21.0881744,49.9866808 C26.602828,55.5013344 34.8964206,57.1510326 42.1016628,54.1665235 C49.306905,51.1820145 54.0048478,44.1510462 54.0048478,36.3521482 C53.9919556,25.7082606 45.3665946,17.0828996 34.7227069,17.0700073 C26.923809,17.0700073 19.8928407,21.7679501 16.9083316,28.9731924 Z" id="Shape"></path>
            </g>
        </g>
    </g>
</svg>