<svg xmlns="http://www.w3.org/2000/svg" width="21.793" height="23.048" viewBox="0 0 21.793 23.048"><defs><style>.a{fill:#949494;}</style></defs><path class="a" d="M1914.682,1136.978l-4.821-1.8v-1.822a7.608,7.608,0,0,0,2.611-5.876c0-.215-.012-.427-.028-.638,0-.009,0-.017,0-.026s0-.007,0-.011c-.292-3.65-2.918-6.517-6.109-6.517-3.053,0-5.585,2.629-6.053,6.055,0,.027-.009.052-.01.078a8.413,8.413,0,0,0-.074,1.059,7.523,7.523,0,0,0,2.911,6.106v1.591l-4.848,1.8a4.056,4.056,0,0,0-2.673,3.82v1.671a.869.869,0,0,0,.869.869h20.055a.869.869,0,0,0,.869-.869v-1.671A4.07,4.07,0,0,0,1914.682,1136.978Zm-8.348-14.952c2.052,0,3.776,1.754,4.259,4.114-1.186.136-1.94-.33-2.7-1.653a.859.859,0,0,0-.772-.438.87.87,0,0,0-.754.467,4.037,4.037,0,0,1-3.2,1.566,3.486,3.486,0,0,1-1.053-.156C1902.661,1123.674,1904.344,1122.026,1906.334,1122.026Zm-4.39,5.658a5.389,5.389,0,0,0,1.229.137,6.388,6.388,0,0,0,3.9-1.464,3.876,3.876,0,0,0,3.133,1.553c.167,0,.338-.01.512-.027-.168,2.817-2.067,5.047-4.382,5.047C1903.965,1132.931,1902.033,1130.595,1901.945,1127.684Zm13.7,13.912h-18.315v-.8a2.318,2.318,0,0,1,1.529-2.187l5.424-2.012a.869.869,0,0,0,.567-.815v-1.333a5.185,5.185,0,0,0,3.275-.091v1.424a.868.868,0,0,0,.565.814l5.4,2.016a2.363,2.363,0,0,1,1.557,2.183Z" transform="translate(-1895.588 -1120.287)"/></svg>